<svg width="108" height="43" fill="none" xmlns="http://www.w3.org/2000/svg"><path d="M24.127 29.512L13.89.846h-.72L4.96 25.85c-1.044 3.268-1.224 3.662-3.931 3.662v.867h7.826v-.867c-1.836 0-3.413.13-3.413-1.433a9.644 9.644 0 01.483-2.043l1.576-5.253.31-.874L11.7 7.547l4.248 12.362.302.874 2.93 8.708h-3.498v.867h11.52v-.846M32.242 1.04H43.92v.91h-3.758v27.562h3.542c8.532 0 12.16 0 12.16-8.93h.836v9.797H32.22v-.867h3.413V1.95h-3.391M55.757 9.825V1.04h25.466v8.786h-.835c0-7.66-1.613-7.833-9.62-7.833v27.47h3.802v.918H62.54v-.918h3.7V1.992c-7.92 0-9.605.781-9.605 7.833M103.867 29.512L93.6.817h-.72L84.7 25.85c-1.043 3.268-1.223 3.662-3.938 3.662v.867h7.834v-.867c-1.836 0-3.413.13-3.413-1.433a9.648 9.648 0 01.483-2.043l1.576-5.253.303-.874L91.44 7.568l4.248 12.362.302.875 2.93 8.707h-3.498v.867h11.52v-.867M4.738 40.886H2.11l-.497 1.211h-.475l2.023-4.916h.525l2.016 4.916h-.468l-.496-1.211zm-2.499-.387h2.362l-1.181-2.91-1.18 2.91zM11.743 37.847v4.25h-.425v-4.916h.432l3.096 4.185v-4.185h.418v4.916h-.41l-3.11-4.25zM23.594 37.095a2.572 2.572 0 011.467.348 2.54 2.54 0 01.568 3.943 2.565 2.565 0 01-2.813.627 2.562 2.562 0 01-1.177-.94 2.543 2.543 0 01-.442-1.434 2.37 2.37 0 01.641-1.793 2.391 2.391 0 011.756-.751zm0 .387a1.965 1.965 0 00-1.456.642 1.947 1.947 0 00-.495 1.508 1.965 1.965 0 002.46 1.698 1.967 1.967 0 001.437-1.585 1.949 1.949 0 00-.873-1.95 1.972 1.972 0 00-1.073-.313zM32.969 37.56h-1.613v-.38h3.658v.38H33.4v4.537h-.432V37.56zM44.323 39.76h-3.132v2.337h-.425v-4.916h.425v2.193h3.132V37.18h.432v4.916h-.432v-2.336zM50.86 37.18H54v.38h-2.714v1.857h2.656v.387h-2.656v1.906H54v.387h-3.14v-4.916zM61.43 40.062h-1.087v2.035h-.425v-4.916h1.843a1.445 1.445 0 011.39.87c.076.177.115.37.115.563a1.356 1.356 0 01-.832 1.325c-.172.073-.356.11-.543.108l1.44 2.064h-.511l-1.39-2.05zm.295-2.502h-1.382v2.15h1.382a1.073 1.073 0 100-2.15zM75.5 37.18h.489l1.793 4.444 1.792-4.443h.49l-2.016 4.916h-.526L75.5 37.181zM85.68 37.18h.418v4.917h-.418v-4.916zM92.218 37.18h3.132v.38h-2.708v1.857H95.3v.387h-2.657v1.906h2.708v.387h-3.132v-4.916zM103.874 37.869l-1.188 4.228h-.446l-1.44-4.916h.475l1.188 4.3 1.217-4.3h.389l1.202 4.3 1.195-4.3h.476l-1.44 4.916h-.476l-1.152-4.228z" fill="#fff"/></svg>