<svg width="122" height="43" fill="none" xmlns="http://www.w3.org/2000/svg"><g clip-path="url(#clip0)"><path d="M0 21.343V0h21.226v21.341H0z" fill="#F0B827"/><path d="M38.061 36.333c-1.236 0-2.384-.036-3.53.01-.97.04-1.609.647-1.72 1.505-.111.868.26 1.593 1.056 1.865a4.023 4.023 0 002.862-.065c.875-.348 1.294-1.008 1.33-1.93.016-.43.002-.862.002-1.385zm3.91 6.588h-3.746l-.13-.904c-.127-.026-.208-.067-.233-.044-1.033.892-2.242 1.119-3.559.997-.684-.064-1.4.029-2.055-.137-2.617-.66-3.441-3.217-3.174-5.298.304-2.377 2.018-3.68 4.429-3.83 1.467-.091 2.945-.017 4.473-.017.13-1.054.236-2.049-.72-2.782-.136-.104-.272-.22-.427-.287-1.411-.625-3.374-.24-4.498.87-.04.04-.088.072-.189.153-.4-.388-.816-.776-1.216-1.182-.406-.41-.796-.838-1.22-1.287.998-1.224 2.346-1.902 3.915-2.062 1.523-.154 3.055-.16 4.56.265 2.327.658 3.566 2.117 3.745 4.525.06.81.041 1.627.043 2.442.005 2.648.001 5.295.001 7.943v.635zM102.521 36.328c-1.199 0-2.323-.03-3.445.009-1.059.037-1.741.692-1.8 1.63-.065 1.042.487 1.746 1.609 1.877.65.077 1.333.054 1.977-.062.98-.177 1.582-.946 1.654-1.97.031-.46.005-.924.005-1.484zm3.935 6.605h-3.767v-1.286c-.291.228-.489.386-.691.54-.659.503-1.369.835-2.232.785-.663-.037-1.331-.007-1.997-.007-2.027-.002-3.656-1.29-4.082-3.3-.137-.645-.232-1.338-.15-1.984.307-2.394 1.968-3.888 4.4-3.978 1.5-.056 3.002-.01 4.553-.01 0-.578.062-1.098-.015-1.597-.118-.776-.579-1.355-1.354-1.529-1.637-.365-3.233-.425-4.49 1.1-.794-.868-1.571-1.713-2.379-2.594.672-.747 1.558-1.428 2.685-1.707 2.119-.522 4.238-.515 6.312.213 1.834.644 2.868 1.973 3.116 3.913.041.317.086.636.087.955.006 3.462.004 6.924.004 10.486zM81.877 42.933h-3.868V27.262h3.813v1.285c.28-.207.475-.345.665-.489 2.066-1.56 5.783-1.465 7.516 1.04.758 1.094 1.01 2.338 1.022 3.625.03 3.373.01 10.182.01 10.182h-3.917s-.029-6.206-.032-8.97c0-.32-.014-.64-.04-.958-.117-1.447-1.065-2.376-2.454-2.414-1.407-.037-2.434.829-2.621 2.239-.062.459-.09.925-.09 1.389-.009 2.677-.004 8.742-.004 8.742zM71.48 35.08c-.083-.794-.116-1.608-.263-2.401-.238-1.28-1.167-2.103-2.388-2.105-1.562-.003-2.3.535-2.613 1.937a11.652 11.652 0 00-.008 5.087c.308 1.39 1.26 2.07 2.612 2.023 1.26-.044 2.164-.836 2.403-2.188.136-.767.173-1.552.257-2.352zm3.744.07c0 1.269-.031 2.57-.366 3.786-.588 2.13-1.343 4.042-6.195 4.042-4.853 0-5.434-1.679-6.06-3.758a12.502 12.502 0 01-.52-3.33 22.227 22.227 0 01.309-4.148c.408-2.378 2.404-4.307 5.274-4.653 1.242-.15 2.477-.065 3.661.406 2.467.985 3.659 2.896 3.887 5.476.064.721.01 1.453.01 2.179-.067-.006.067.007 0 0zM49.593 27.229h2.85v2.988h-2.745v7.429c0 .261-.012.525.015.784.084.801.498 1.18 1.304 1.21.23.008.463 0 .694-.001h.724v3.333c-1.14-.07-2.278.127-3.417-.157-1.775-.442-2.964-1.762-3.148-3.592-.07-.692-.061-1.393-.063-2.091-.008-2.269-.003-6.915-.003-6.915h-1.599V27.23h1.604v-4.161h3.784v4.16zM109.791 21.433h3.833s.045 11.072.045 16.28c0 .262-.02.527.007.785.074.706.478 1.092 1.187 1.139.289.019.579.004.868.004h.815v3.335c-1.223-.084-2.449.144-3.67-.183-1.723-.46-2.93-1.898-3.064-3.681a8.297 8.297 0 01-.021-.61V21.432zM28.941 28.57c-.993.963-1.948 1.89-2.947 2.857-.18-.135-.394-.319-.63-.468-1.446-.922-3.378-.168-3.804 1.499-.105.416-.148.86-.15 1.29-.013 2.763-.006 9.177-.006 9.177h-3.812V27.26h3.746v1.336c2.747-2.07 5.762-2.092 7.603-.025zM59.22 42.921h-3.837V27.26h3.837V42.92zM59.25 21.43v3.189h-3.922V21.43H59.25zM118.726 23.854c.984.11 1.536-.03 1.536-.566 0-.812-1.536-.561-1.536-.561v1.127zm0 1.742h-.335v-3.258s.765-.018 1.132.004c.561.034.974.32 1.056.727.106.53-.05.97-.715 1.137.23.464.748 1.39.748 1.39h-.365l-.762-1.327h-.759v1.327z" fill="#fff"/><path d="M121.826 23.963a2.535 2.535 0 01-2.527 2.541 2.534 2.534 0 01-2.527-2.54 2.534 2.534 0 012.527-2.542 2.535 2.535 0 012.527 2.541z" stroke="#fff" stroke-width="2" stroke-miterlimit="10"/></g><defs><clipPath id="clip0"><path fill="#fff" d="M0 0h122v43H0z"/></clipPath></defs></svg>