<svg width="137" height="43" fill="none" xmlns="http://www.w3.org/2000/svg"><path fill-rule="evenodd" clip-rule="evenodd" d="M47.447 30.022L44.815 15.87l-2.477 14.15h5.109zm27.632-19.858v21.89c0 .704.62 1.173 1.239 1.173.619 0 1.16-.469 1.16-1.172V10.163c0-.704-.619-1.173-1.238-1.173-.697 0-1.161.547-1.161 1.173zM3.173.078C1.625.078.387 1.33.387 2.893v36.98c0 1.563 1.238 2.814 2.786 2.814h130.421c1.548 0 2.864-1.25 2.864-2.814V2.893c0-1.564-1.238-2.815-2.864-2.815H3.174zm15.403 17.67c-1.548 0-2.786-1.252-2.786-2.894v-4.69c0-.704-.542-1.173-1.239-1.173-.696 0-1.238.547-1.238 1.173v4.143c0 2.58.155 2.737 2.554 4.3l3.483 2.268c1.161.781 2.013 1.954 2.013 3.987V29.396c0 4.457-2.632 6.333-6.812 6.333s-6.888-2.267-6.888-6.723V27.05c0-1.564 1.238-2.893 2.864-2.893 1.625 0 2.863 1.251 2.863 2.893v4.847c0 .704.542 1.173 1.239 1.173.696 0 1.16-.47 1.16-1.173v-5.785c0-.782-.309-1.173-1.238-1.799l-4.334-3.127c-1.78-1.25-2.322-2.502-2.322-4.3v-3.909c0-4.456 2.477-6.333 6.656-6.333 4.18 0 6.89 1.955 6.89 6.333v1.955c.076 1.563-1.24 2.814-2.865 2.814zm12.462 18.06c-4.18 0-6.889-1.955-6.889-6.334V13.056c0-4.456 2.632-6.332 6.811-6.332 4.18 0 6.89 1.954 6.89 6.332v1.955c0 1.564-1.24 2.893-2.865 2.893-1.548 0-2.786-1.251-2.786-2.893V10.32c0-.704-.542-1.173-1.239-1.173-.696 0-1.16.548-1.16 1.173v21.89c0 .704.619 1.174 1.238 1.174s1.238-.47 1.238-1.173v-5.004c0-1.563 1.239-2.893 2.787-2.893a2.872 2.872 0 012.863 2.893v2.424c0 4.222-2.709 6.176-6.888 6.176zm17.028-2.502l-.232-.86h-5.805l-.387 1.954c-.155.704-.62 1.33-1.316 1.33-.774 0-1.316-.626-1.316-1.33 0-.156.155-.86.155-.86l4.18-24.55c.232-1.328 1.47-2.345 3.018-2.345 1.548 0 2.71 1.017 3.019 2.346l4.334 23.376c0 .157.078.626.078.782 0 1.564-1.316 2.658-2.941 2.658-1.394-.078-2.322-1.016-2.787-2.502zm15.403.078c-.232 1.329-1.47 2.423-3.019 2.423-1.47 0-2.709-1.094-2.941-2.423l-4.334-23.299c-.078-.156-.078-.625-.078-.781 0-1.642 1.316-2.659 2.864-2.659 1.47 0 2.4.939 2.864 2.424l3.173 17.904L65.25 7.975c.155-.782.62-1.33 1.316-1.33.774 0 1.393.626 1.393 1.33-.077.156-.155.86-.155.86s-.077.703-4.334 24.549zm12.771 2.423c-4.18 0-6.889-1.954-6.889-6.333V13.056c0-4.456 2.632-6.332 6.812-6.332s6.966 1.954 6.966 6.332v16.419c0 4.378-2.71 6.332-6.889 6.332zm13.004-.078c-1.316 0-2.864-.782-2.864-2.58 0 0-.078-1.173 0-24.002 0-1.407 1.238-2.502 2.786-2.502S92.03 7.74 92.03 9.147v23.924h2.632c.696 0 1.315.625 1.315 1.329 0 .782-.619 1.33-1.316 1.33h-5.418zm10.526 0c-1.316 0-2.864-.782-2.864-2.58V9.147c0-1.407 1.316-2.502 2.864-2.502 1.548 0 2.864 1.095 2.864 2.502.077 22.83 0 24.002 0 24.002 0 1.798-1.548 2.58-2.864 2.58zm18.576-.078c-1.316.547-2.864-.078-3.405-1.564l-6.889-17.825v18.294c0 .704-.542 1.251-1.238 1.251a1.229 1.229 0 01-1.239-1.25V9.303c0-1.095.619-2.111 1.703-2.58 1.316-.548 2.864.156 3.406 1.563l6.888 17.904V7.74c0-.704.542-1.25 1.239-1.25.696 0 1.238.625 1.238 1.25v25.33c0 1.096-.619 2.112-1.703 2.58zm7.431.078c-1.316 0-2.864-.782-2.864-2.58 0 0-.077-1.173 0-24.002 0-1.407 1.316-2.502 2.864-2.502 1.548 0 2.864 1.095 2.864 2.502V33.15c0 1.798-1.471 2.58-2.864 2.58z" fill="#E30613"/></svg>