<svg width="64" height="64" fill="none" xmlns="http://www.w3.org/2000/svg"><path d="M64 6.012h-7.014V2.004H51.1v4.008h-5.135V2.004h-5.887v4.008h-5.135V2.004h-5.886v4.008h-5.135V2.004h-5.887v4.008H12.9V2.004H7.014v4.008H0V17.91h2.004v44.086h47.418l12.574-12.574V17.91H64V6.012zm-11.022-2.13h2.13v6.138h-2.13V3.883zm-11.021 0h2.13v6.138h-2.13V3.883zm-11.022 0h2.13v6.138h-2.13V3.883zm-11.021 0h2.13v6.138h-2.13V3.883zm-11.022 0h2.13v6.138h-2.13V3.883zm40.079 55.909v-10.82h10.82L48.97 59.79zm11.146-12.699H47.092v13.025H3.882V17.91h56.235v29.182zm2.004-31.06H1.88V7.89h5.135v4.008H12.9V7.89h5.135v4.008h5.887V7.89h5.135v4.008h5.886V7.89h5.135v4.008h5.887V7.89H51.1v4.008h5.886V7.89h5.135v8.141z" fill="#E9952F"/><path d="M35.006 23.045h-6.012v1.879h6.012v-1.879zM24.986 23.045h-6.011v1.879h6.011v-1.879zM14.967 23.045H8.955v1.879h6.012v-1.879zM55.045 23.045h-6.012v1.879h6.012v-1.879zM45.025 23.045h-6.011v1.879h6.011v-1.879zM35.006 29.057h-6.012v1.878h6.012v-1.878zM24.986 29.057h-6.011v1.878h6.011v-1.878zM14.967 29.057H8.955v1.878h6.012v-1.878zM55.045 29.057h-6.012v1.878h6.012v-1.878zM45.025 29.057h-6.011v1.878h6.011v-1.878zM35.006 35.069h-6.012v1.878h6.012v-1.879zM24.986 35.069h-6.011v1.878h6.011v-1.879zM14.967 35.069H8.955v1.878h6.012v-1.879zM55.045 35.069h-6.012v1.878h6.012v-1.879zM45.025 35.069h-6.011v1.878h6.011v-1.879zM35.006 41.08h-6.012v1.879h6.012V41.08zM24.986 41.08h-6.011v1.879h6.011V41.08zM14.967 41.08H8.955v1.879h6.012V41.08zM55.045 41.08h-6.012v1.879h6.012V41.08zM45.025 41.08h-6.011v1.879h6.011V41.08zM35.006 47.092h-6.012v1.879h6.012v-1.879zM24.986 47.092h-6.011v1.879h6.011v-1.879zM14.967 47.092H8.955v1.879h6.012v-1.879zM45.025 47.092h-6.011v1.879h6.011v-1.879zM35.006 53.104h-6.012v1.878h6.012v-1.878zM24.986 53.104h-6.011v1.878h6.011v-1.878zM14.967 53.104H8.955v1.878h6.012v-1.878zM45.025 53.104h-6.011v1.878h6.011v-1.878z" fill="#E9952F"/></svg>