<svg width="60" height="60" fill="none" xmlns="http://www.w3.org/2000/svg"><path d="M30 0a7 7 0 00-7 7 7.008 7.008 0 007 7 7 7 0 100-14zm0 12a5 5 0 01-5-5 5.006 5.006 0 015-5 5 5 0 010 10zM33 15h-6a9.01 9.01 0 00-9 9v17h4v19h2V37h-2v2h-2V24a7.008 7.008 0 017-7h6a7.008 7.008 0 017 7v15h-2v-2h-2v23h2V41h4V24a9.01 9.01 0 00-9-9z" fill="#E9952F"/><path d="M31 41h-2v19h2V41zM50 10a6 6 0 100 12 6 6 0 000-12zm0 10a4 4 0 110-8 4 4 0 010 8zM53 23h-9v2h9a5.006 5.006 0 015 5v13h-2v-2h-2v19h2V45h4V30a7.008 7.008 0 00-7-7zM44 41v2h-4v2h4v15h2V41h-2z" fill="#E9952F"/><path d="M51 45h-2v15h2V45zM10 10a6 6 0 100 12 6 6 0 000-12zm0 10a4 4 0 110-8 4 4 0 010 8zM7 23a7.008 7.008 0 00-7 7v15h4v15h2V41H4v2H2V30a5.006 5.006 0 015-5h9v-2H7zM16 43v-2h-2v19h2V45h4v-2h-4z" fill="#E9952F"/><path d="M11 45H9v15h2V45z" fill="#E9952F"/></svg>