<svg width="64" height="64" fill="none" xmlns="http://www.w3.org/2000/svg"><path d="M34.591 64c-2.58.009-5.14-.41-7.564-1.236-8.692-2.988-14.49-7.695-17.23-13.989-4.5-10.332.842-21.099 1.071-21.551a.94.94 0 01.396-.401 1.028 1.028 0 011.108.09c.152.118.263.278.316.458.784 2.09 2.166 3.936 3.996 5.336 2.23-10.504 11.996-16.86 12.43-17.14 6.302-4.732 1.155-14.135 1.102-14.229a.864.864 0 01-.091-.606.907.907 0 01.337-.525c.174-.133.39-.206.615-.207.224 0 .441.071.616.203 17.354 13.212 16.356 26.52 14.955 31.987a8.948 8.948 0 002.937-3.659c.62-1.44.827-3.008.599-4.546a.868.868 0 01.125-.59.961.961 0 01.49-.39c.205-.074.431-.081.642-.02.21.063.391.19.515.36a40.4 40.4 0 014.555 8.799 23.524 23.524 0 011.077 12.616c-.8 4.222-2.746 8.18-5.65 11.493l-.209.238c-2.087 2.363-4.707 4.261-7.67 5.56A23.355 23.355 0 0134.59 64zm-6.894-2.953a21.155 21.155 0 006.894 1.124 21.307 21.307 0 008.634-1.776 20.076 20.076 0 006.998-5.067l.195-.228c2.693-3.07 4.498-6.74 5.242-10.654a21.813 21.813 0 00-.993-11.697 40.154 40.154 0 00-2.62-5.622c-1.072 5.501-6.682 8.06-6.75 8.09-.182.08-.386.106-.584.074a.998.998 0 01-.522-.254.897.897 0 01-.272-.49A.863.863 0 0144 34c.307-.62 7.016-14.72-10.643-30.028 1.127 3.664 1.8 9.394-3.09 13.064-.163.108-10.512 6.863-11.926 17.464a.884.884 0 01-.183.428.966.966 0 01-.383.29 1.031 1.031 0 01-.948-.078 17.446 17.446 0 01-5.04-5.1c-1.279 3.513-3.255 11.01-.18 18.05 2.527 5.793 7.94 10.15 16.09 12.953l.001.004z" fill="#E9952F"/><path d="M30.216 63.657a.973.973 0 01-.626-.229c-12.399-10.451-3.664-23.817-3.574-23.95a.973.973 0 011.78.48 6.525 6.525 0 001.517 4.078 19.773 19.773 0 018.577-19.117.973.973 0 011.355 1.286 6.754 6.754 0 00-.785 3.294 7.141 7.141 0 001.222 3.733l.39.595a61 61 0 004.183 5.509 17.153 17.153 0 012.763 4.702c4.876 10.054-3.503 17.979-3.585 18.058a.973.973 0 01-1.323-1.426c.304-.284 7.419-7.064 3.136-15.825a.925.925 0 01-.044-.106 15.3 15.3 0 00-2.444-4.16 62.775 62.775 0 01-4.317-5.687l-.39-.594a9.089 9.089 0 01-1.539-4.758c-.007-.38.01-.759.051-1.136-2.802 2.65-6.908 8.29-4.972 17.514a.973.973 0 01-1.235 1.131 6.643 6.643 0 01-3.95-4.17c-1.726 3.93-3.794 12.123 4.436 19.064a.973.973 0 01-.628 1.717l.002-.003z" fill="#E9952F"/></svg>