<svg width="64" height="64" fill="none" xmlns="http://www.w3.org/2000/svg"><path d="M9.6 64h44.8V0H9.6v64zm2.133-61.867h40.534v59.734H11.733V2.133z" fill="#E9952F"/><path d="M27.733 21.014v9.706L32 27.84l4.267 2.88v-9.706c3.413-2.347 4.266-7.04 1.813-10.347-2.347-3.414-7.04-4.267-10.347-1.814-3.306 2.454-4.266 7.04-1.813 10.347a4.933 4.933 0 001.813 1.814zm6.4 5.76L32 25.386l-2.133 1.386V22.08a7.272 7.272 0 004.266 0v4.693zM32 9.6c2.986 0 5.333 2.347 5.333 5.333 0 2.987-2.346 5.334-5.333 5.334-2.986 0-5.333-2.347-5.333-5.334 0-2.986 2.347-5.333 5.333-5.333zM23.467 34.133h17.066v2.134H23.467v-2.134zM18.133 38.4h27.734v2.133H18.133V38.4zM18.133 42.667h27.734V44.8H18.133v-2.133zM18.133 46.933h27.734v2.134H18.133v-2.134zM22.4 52.267h6.4V54.4h-6.4v-2.133zM35.2 52.267h6.4V54.4h-6.4v-2.133z" fill="#E9952F"/><path d="M46.933 6.4V4.267H17.067V6.4c0 .64-.427 1.067-1.067 1.067h-2.133v49.066H16c.64 0 1.067.427 1.067 1.067v2.133h29.866V57.6c0-.64.427-1.067 1.067-1.067h2.133V7.467H48c-.64 0-1.067-.427-1.067-1.067zM48 54.4c-1.813 0-3.2 1.386-3.2 3.2H19.2c0-1.814-1.386-3.2-3.2-3.2V9.6c1.814 0 3.2-1.386 3.2-3.2h25.6c0 1.814 1.387 3.2 3.2 3.2v44.8z" fill="#E9952F"/></svg>