<svg width="24" height="24" fill="none" xmlns="http://www.w3.org/2000/svg"><path d="M2.6 6.1c-2 2.3-2 5.7 0 7.9 1 1.3 2.4 2.3 3.9 2.9 1.7.7 3.5 1.1 5.4 1.1.6 0 1.2-.1 1.8-.1 1.6 1.5 3.5 2.5 5.6 3 .5.1.9.2 1.4.3h.1c.1 0 .3-.1.3-.1.1-.1.2-.2.2-.3v-.1-.1s0-.1-.1-.1l-.1-.1-.1-.4v-.1l-.4-.4-.4-.5c-.1-.1-.2-.3-.4-.5-.1-.2-.3-.4-.4-.6-.1-.2-.2-.5-.3-.7-.1-.3-.3-.6-.3-.9 1.2-.7 2.2-1.6 3-2.7.7-1 1.1-2.2 1.1-3.5 0-1.5-.5-2.9-1.4-3.9-1-1.3-2.4-2.3-3.9-2.9-1.7-.7-3.6-1.1-5.4-1.1-1.9 0-3.7.3-5.4 1.1-1.8.5-3.1 1.5-4.2 2.8zm.1 4c0-1.2.5-2.3 1.3-3.1.9-1.1 2.1-1.9 3.4-2.3 1.5-.7 3-1 4.6-1 1.6 0 3.1.3 4.6.9 1.3.5 2.5 1.3 3.4 2.3.8.9 1.2 1.9 1.2 3.1 0 .9-.3 1.9-.9 2.6-.7.9-1.5 1.6-2.4 2.1l-1 .6.3 1.2c.2.7.5 1.5.9 2.1-1.2-.5-2.4-1.2-3.3-2.1l-.5-.5-.7.1c-.5.1-1 .1-1.6.1-1.6 0-3.1-.3-4.6-.9C6.1 14.8 4.9 14 4 13c-.8-.7-1.3-1.8-1.3-2.9z" fill="#E9952F"/><path d="M20.6 21.3c-.5-.1-.9-.1-1.4-.3-2-.5-4-1.5-5.6-3-.6.1-1.1.1-1.7.1-1.9 0-3.7-.3-5.5-1.1-1.6-.6-2.9-1.6-4-2.9-.9-1.1-1.4-2.6-1.4-4 0-1.5.5-3 1.5-4.1 1-1.3 2.4-2.3 4-2.9C8.3 2.3 10.1 2 12 2s3.7.3 5.5 1.1c1.6.6 2.9 1.6 4 2.9.9 1.1 1.4 2.5 1.5 4.1 0 1.3-.4 2.5-1.1 3.6-.8 1.1-1.8 2-2.9 2.7.1.3.2.5.3.8.1.3.3.5.3.7.1.2.3.4.4.6.2.2.3.4.4.5l.4.5.3.4.1.1.2.2c.1.1.1.2.1.2v.4c-.1.1-.1.3-.3.4-.2 0-.3 0-.6.1zm.4-1l-.1-.2-.1-.1h-.1l-.4-.4-.3-.5c-.1-.1-.2-.3-.4-.5-.1-.2-.3-.5-.4-.7-.1-.2-.2-.5-.3-.7-.1-.3-.3-.6-.3-.9l-.1-.1.1-.1c1.2-.7 2.2-1.5 2.9-2.7.7-1 1-2.1 1-3.3 0-1.4-.5-2.8-1.4-3.9-1-1.3-2.3-2.2-3.8-2.8-1.7-.7-3.5-1.1-5.4-1.1-1.9 0-3.6.4-5.3 1.1-1.5.6-2.8 1.5-3.8 2.8-.9 1.1-1.4 2.5-1.5 3.9 0 1.4.5 2.8 1.4 3.9 1 1.3 2.4 2.2 3.9 2.8 1.7.7 3.5 1.1 5.4 1 .6 0 1.2-.1 1.7-.1h.1l.1.1c1.6 1.4 3.5 2.4 5.5 2.9.5.1.9.2 1.3.3h.1c.1 0 .1 0 .2-.1s.1-.1.1-.2v-.2-.2H21zm-3-1.4c-1.2-.5-2.4-1.3-3.3-2.1l-.5-.4-.6.1c-.5.1-1 .1-1.6.1-1.6 0-3.2-.3-4.6-.9-1.3-.5-2.5-1.3-3.5-2.3-.9-.9-1.3-2.1-1.3-3.3 0-1.2.5-2.4 1.3-3.3 1-1.1 2.2-1.9 3.5-2.3 1.5-.6 3.1-.9 4.6-.9 1.5 0 3.2.3 4.6.9 1.3.5 2.5 1.3 3.5 2.3.9.9 1.3 2.1 1.3 3.3 0 1-.3 1.9-.9 2.7-.7.9-1.5 1.7-2.5 2.2l-.9.5.3 1.1c.2.7.5 1.4.9 2.1l.2.4-.5-.2zm-6-15c-1.6 0-3.1.3-4.6.9C6.2 5.2 5 6 4.1 7c-.8.8-1.2 1.9-1.3 3 0 1.1.5 2.2 1.2 3 .9 1 2.1 1.8 3.3 2.3 1.4.6 3 .9 4.6.9.5 0 1-.1 1.6-.1l.8-.1.6.5c.9.7 1.8 1.4 2.9 1.9-.3-.5-.5-1.1-.7-1.7l-.5-1.3 1.2-.7c.9-.5 1.8-1.2 2.4-2.1.5-.7.9-1.6.9-2.5 0-1.1-.5-2.2-1.2-3-.9-1-2.1-1.8-3.3-2.3-1.5-.6-3-.9-4.6-.9z" fill="#E9952F"/></svg>