<svg width="22" height="22" fill="none" xmlns="http://www.w3.org/2000/svg"><path d="M21.934 6.465c-.054-1.171-.24-1.97-.512-2.67a5.39 5.39 0 00-1.268-1.949A5.393 5.393 0 0018.205.577c-.7-.272-1.499-.457-2.67-.51C14.362.012 13.987 0 11 0S7.638.013 6.465.066c-1.171.054-1.97.24-2.67.512a5.391 5.391 0 00-1.949 1.268A5.392 5.392 0 00.577 3.795c-.272.7-.457 1.499-.51 2.67C.012 7.638 0 8.012 0 11c0 2.987.013 3.362.066 4.535.054 1.17.24 1.97.512 2.67a5.39 5.39 0 001.268 1.949 5.39 5.39 0 001.949 1.268c.7.272 1.5.458 2.67.512C7.638 21.987 8.013 22 11 22c2.988 0 3.362-.013 4.535-.066 1.171-.054 1.97-.24 2.67-.512a5.624 5.624 0 003.217-3.217c.273-.7.458-1.5.512-2.67.053-1.173.066-1.548.066-4.535 0-2.988-.013-3.362-.066-4.535zm-1.98 8.98c-.05 1.073-.228 1.655-.379 2.043a3.643 3.643 0 01-2.088 2.087c-.387.15-.97.33-2.042.379-1.16.053-1.508.064-4.445.064-2.937 0-3.285-.011-4.445-.064-1.072-.049-1.655-.228-2.043-.379a3.409 3.409 0 01-1.264-.823 3.407 3.407 0 01-.823-1.264c-.15-.388-.33-.97-.379-2.043-.053-1.16-.064-1.508-.064-4.445 0-2.937.011-3.285.064-4.445.05-1.072.228-1.655.379-2.042a3.41 3.41 0 01.823-1.265 3.406 3.406 0 011.265-.823c.387-.15.97-.33 2.042-.379 1.16-.053 1.508-.064 4.445-.064 2.937 0 3.285.011 4.445.064 1.072.05 1.655.228 2.042.379.478.176.91.457 1.265.823.366.354.647.787.823 1.265.15.387.33.97.379 2.042.053 1.16.064 1.508.064 4.445 0 2.937-.011 3.285-.064 4.445z" fill="#92949E"/><path d="M11 5.351a5.649 5.649 0 100 11.298A5.649 5.649 0 0011 5.35zm0 9.316a3.667 3.667 0 110-7.334 3.667 3.667 0 010 7.333zM18.192 5.128a1.32 1.32 0 11-2.64 0 1.32 1.32 0 012.64 0z" fill="#92949E"/></svg>