<svg width="64" height="64" fill="none" xmlns="http://www.w3.org/2000/svg"><path d="M15 31H0v31h4v2h2v-2h24.876v2h2v-2h26.25v2h2v-2H64V31H15zm0 29H2V40h13v20zm0-22H2v-5h13v5zm32 22H17V33h30v27zm15 0H49V40h13v20zm0-22H49v-5h13v5z" fill="#E9952F"/><path d="M11 44h2v5h-2v-5zM51 44h2v5h-2v-5zM44 40H20v17h24V40zm-2 15H22V42h20v13zM20 35h24v2H20v-2zM22 0H0v17h22V0zM10 15H2V2h8v13zm10 0h-8V2h8v13zM42 17h22V0H42v17zM54 2h8v13h-8V2zM44 2h8v13h-8V2z" fill="#E9952F"/><path d="M25 0v15.667L22.5 19H18v2h28v-2h-4.5L39 15.667V0H25zm2 2h10v13H27V2zm-2 17l1.5-2h11l1.5 2H25zM6 5h2v5H6V5zM16 5h2v5h-2V5zM47 5h2v5h-2V5zM57 5h2v5h-2V5zM27 44h11v2H27v-2z" fill="#E9952F"/></svg>