<svg width="134" height="23" fill="none" xmlns="http://www.w3.org/2000/svg"><path d="M17.015 11.488h-5.54l-4.195 5.87c-1.666 2.324-.025 5.592 2.8 5.592 1.111 0 2.148-.54 2.802-1.445l5.38-7.529c.74-1.043.012-2.488-1.247-2.488z" fill="url(#paint0_linear)"/><path d="M12.882 1.47A3.424 3.424 0 0010.08.026c-2.826 0-4.467 3.268-2.801 5.593l4.232 5.87 3.282 4.55c.062.075.124.15.173.238a2.136 2.136 0 01.025 2.25l.802-1.119 2.628-3.67a3.887 3.887 0 000-4.512l-5.54-7.754z" fill="url(#paint1_linear)"/><path d="M6.17 11.475H2.939L.495 14.894c-.975 1.357-.012 3.255 1.629 3.255.641 0 1.246-.314 1.628-.842l3.134-4.386c.445-.604.025-1.446-.715-1.446z" fill="url(#paint2_linear)"/><path d="M3.764 5.643a2.016 2.016 0 00-1.629-.842c-1.653 0-2.603 1.91-1.628 3.255l2.467 3.419 1.913 2.652a.557.557 0 01.099.138 1.243 1.243 0 01.025 1.307l.468-.653 1.53-2.137a2.28 2.28 0 000-2.627L3.764 5.643z" fill="url(#paint3_linear)"/><path d="M46.11 18.174h-3.158v-.39-7.113c0-.943-.21-1.822-.987-2.426-.864-.69-1.851-.703-2.801-.238-.889.427-1.42 1.194-1.42 2.25v7.905h-3.158v-.39-7.189c0-.817-.197-1.584-.802-2.174-1.148-1.119-3.097-.83-4.01.59-.26.403-.407.83-.395 1.345.025 2.489.012 4.99.012 7.478v.34h-3.146V4.839h3.134v1.069c2.16-1.936 5.429-1.534 7.095.628.407-.327.79-.716 1.246-.98 1.987-1.17 4.023-1.295 6.009 0 1.234.817 1.85 2.099 2.16 3.531.147.692.21 1.408.221 2.112.025 2.187.013 4.374.013 6.56-.013.126-.013.264-.013.415zM133.001 15.786c-1.975 2.702-6.318 3.343-9.094 1.495-4.158-2.765-4.047-9.074.222-11.663 2.246-1.37 5.281-1.257 7.268.276 1.258.98 1.949 2.338 2.282 3.872.185.854.259 1.721.259 2.677h-9.649c.272 1.194.938 2.023 1.999 2.438 1.851.716 3.356.05 4.714-1.295.666.73 1.32 1.458 1.999 2.2zm-2.653-5.895c-.124-.678-.395-1.257-.913-1.697-1.247-1.055-3.27-.867-4.393.39-.333.377-.605.792-.74 1.307h6.046zM60.83 18.174h-3.096v-.917c-.358.188-.679.402-1.024.54-2.024.855-3.986.792-5.787-.54-1.172-.867-1.715-2.162-1.851-3.595-.099-1.005-.074-2.036-.087-3.054-.012-1.784 0-3.57 0-5.354V4.84h3.11c.012.113.012.214.012.327v7.252c0 1.445.84 2.59 2.209 2.853 1.382.264 2.64-.277 3.245-1.634.086-.2.136-.44.136-.666.012-2.564 0-5.128 0-7.68v-.427h3.11c.024 4.425.024 8.861.024 13.31zM78.673 15.158v3.041c-1.395-.075-2.801.176-4.158-.276-1.506-.49-2.308-1.596-2.468-3.142-.111-1.018-.062-2.062-.074-3.092-.013-1.32 0-2.64 0-3.997h-1.839V4.814h1.839v-2.84h3.121v2.84h3.579v2.853h-3.566v5.983c.025 1.005.481 1.47 1.48 1.508.691.012 1.37 0 2.086 0zM67.037.063h-3.11v18.11h3.11V.064zM85.311 1.823c-.025.967-.765 1.784-1.752 1.784-1.012 0-1.79-.83-1.777-1.822.013-.98.728-1.76 1.765-1.76 1.036 0 1.752.792 1.764 1.798zM85.064 4.84h-3.11v13.334h3.11V4.84z" fill="#fff"/><path d="M120.143 15.158v3.041c-1.394-.075-2.8.176-4.158-.276-1.505-.49-2.307-1.596-2.467-3.142-.112-1.018-.062-2.062-.075-3.092-.012-1.32 0-2.64 0-3.997h-1.838V4.814h1.838v-2.84h3.122v2.84h3.578v2.853h-3.565v5.983c.024 1.005.481 1.47 1.48 1.508.691.012 1.37 0 2.085 0zM109.693 1.823c-.025.967-.765 1.784-1.752 1.784a1.78 1.78 0 01-1.777-1.822c.012-.98.728-1.76 1.764-1.76 1.037 0 1.765.792 1.765 1.798zM109.446 4.84h-3.11v13.334h3.11V4.84zM94.454 17.923c-1.036-.277-1.863-.616-2.468-1.018l1.259-2.765c.58.377 1.283.69 2.11.93a8.66 8.66 0 002.418.352c1.604 0 2.394-.403 2.394-1.207 0-.377-.222-.654-.654-.817-.432-.163-1.11-.302-2.011-.415-1.061-.163-1.95-.352-2.64-.565a4.09 4.09 0 01-1.802-1.131c-.506-.54-.765-1.32-.765-2.326 0-.842.234-1.583.715-2.237.482-.653 1.173-1.156 2.086-1.52.913-.365 1.986-.54 3.233-.54.925 0 1.838.1 2.751.313.913.201 1.666.49 2.27.855l-1.27 2.715a7.453 7.453 0 00-3.751-.993c-.802 0-1.42.113-1.814.34-.407.225-.605.527-.605.891 0 .415.222.704.654.868.432.163 1.135.326 2.085.465 1.061.176 1.938.377 2.616.578a3.846 3.846 0 011.765 1.119c.506.54.752 1.294.752 2.274 0 .817-.246 1.559-.728 2.2-.481.64-1.197 1.143-2.122 1.495-.925.352-2.036.528-3.307.528a12.185 12.185 0 01-3.17-.39z" fill="#fff"/><defs><linearGradient id="paint0_linear" x1="12.93" y1="15.427" x2="8.164" y2="22.187" gradientUnits="userSpaceOnUse"><stop stop-color="#E54838"/><stop offset="1" stop-color="#F0A33B"/></linearGradient><linearGradient id="paint1_linear" x1="21.265" y1="17.23" x2="12.956" y2="9.295" gradientUnits="userSpaceOnUse"><stop stop-color="#2D2E8E"/><stop offset="1" stop-color="#289FD9"/></linearGradient><linearGradient id="paint2_linear" x1="3.793" y1="13.772" x2="1.017" y2="17.71" gradientUnits="userSpaceOnUse"><stop stop-color="#E54838"/><stop offset="1" stop-color="#F0A33B"/></linearGradient><linearGradient id="paint3_linear" x1="6.977" y1="13.933" x2="1.677" y2="7.401" gradientUnits="userSpaceOnUse"><stop stop-color="#2D2E8E"/><stop offset="1" stop-color="#289FD9"/></linearGradient></defs></svg>