<svg width="18" height="18" fill="none" xmlns="http://www.w3.org/2000/svg"><path d="M.878 2.35L3.236 0l4.897 4.889-1.898 1.96c.318.565 1.008 1.647 2.185 2.824 1.177 1.177 2.267 1.875 2.837 2.198l1.922-1.898 4.82 4.792-2.345 2.361a2.97 2.97 0 01-3.394.578c-1.73-.84-4.34-2.39-6.955-5.005C2.69 10.085 1.14 7.474.3 5.744c-.199-.41-.296-.85-.296-1.287 0-.772.302-1.535.874-2.107zm.686 2.78c.793 1.633 2.258 4.1 4.735 6.576 2.476 2.476 4.942 3.941 6.575 4.734.595.29 1.313.166 1.785-.306l1.354-1.363-2.838-2.82-1.637 1.617-.438-.195c-.072-.032-1.766-.799-3.674-2.707-1.909-1.909-2.66-3.589-2.69-3.66l-.19-.432L6.16 4.906 3.235 1.985 1.871 3.344a1.564 1.564 0 00-.307 1.786z" fill="#fff"/></svg>