<svg width="24" height="24" fill="none" xmlns="http://www.w3.org/2000/svg"><path d="M12 6.3a3.717 3.717 0 00-3.713 3.712A3.717 3.717 0 0012 13.725a3.717 3.717 0 003.713-3.713A3.717 3.717 0 0012 6.3zm0 5.862a2.152 2.152 0 01-2.15-2.15c0-1.185.965-2.15 2.15-2.15s2.15.965 2.15 2.15c0 1.186-.965 2.15-2.15 2.15z" fill="#92949E"/><path d="M12 2c-4.418 0-8.012 3.594-8.012 8.012v.222c0 2.234 1.28 4.838 3.807 7.739a32.937 32.937 0 003.714 3.63L12 22l.491-.397a32.925 32.925 0 003.714-3.63c2.526-2.901 3.807-5.505 3.807-7.74v-.22C20.012 5.593 16.418 2 12 2zm6.449 8.234c0 3.776-4.865 8.347-6.449 9.734-1.584-1.388-6.449-5.959-6.449-9.734v-.222a6.456 6.456 0 016.45-6.449 6.456 6.456 0 016.448 6.45v.22z" fill="#92949E"/></svg>