<svg width="240" height="76" fill="none" xmlns="http://www.w3.org/2000/svg"><g clip-path="url(#clip0)"><path fill="#fff" d="M9.491 6.869h226.441v60.444H9.491z"/><path fill-rule="evenodd" clip-rule="evenodd" d="M83.118 52.752l-4.61-24.865L74.17 52.75h8.95zm48.407-34.893v38.464c0 1.237 1.085 2.06 2.17 2.06 1.084 0 2.034-.823 2.034-2.06V17.86c0-1.237-1.085-2.061-2.17-2.061-1.22 0-2.034.962-2.034 2.06zM5.559.137C2.847.137.678 2.335.678 5.083V70.06c0 2.747 2.17 4.945 4.881 4.945h228.475c2.712 0 5.017-2.198 5.017-4.945V5.083c0-2.748-2.17-4.946-5.017-4.946H5.559zm26.983 31.047c-2.712 0-4.881-2.198-4.881-5.083v-8.242c0-1.237-.95-2.061-2.17-2.061s-2.17.962-2.17 2.06v7.281c0 4.534.272 4.809 4.475 7.556l6.102 3.984c2.034 1.373 3.525 3.434 3.525 7.006v7.968c0 7.83-4.61 11.127-11.932 11.127s-12.067-3.984-12.067-11.814V47.53c0-2.747 2.169-5.082 5.016-5.082 2.848 0 5.017 2.198 5.017 5.082v8.517c0 1.237.95 2.061 2.17 2.061s2.034-.824 2.034-2.06V45.882c0-1.374-.543-2.06-2.17-3.16l-7.593-5.495c-3.119-2.198-4.068-4.396-4.068-7.555v-6.869c0-7.83 4.34-11.127 11.661-11.127 7.322 0 12.068 3.434 12.068 11.127v3.434c.136 2.748-2.17 4.946-5.017 4.946zm21.83 31.733c-7.321 0-12.067-3.434-12.067-11.127V22.94c0-7.83 4.61-11.127 11.932-11.127s12.068 3.434 12.068 11.127v3.435c0 2.747-2.17 5.083-5.017 5.083-2.712 0-4.881-2.198-4.881-5.083v-8.243c0-1.236-.95-2.06-2.17-2.06s-2.034.961-2.034 2.06v38.465c0 1.236 1.085 2.06 2.17 2.06 1.084 0 2.17-.824 2.17-2.06v-8.792c0-2.747 2.169-5.083 4.88-5.083 2.712 0 5.017 2.198 5.017 5.083v4.259c0 7.418-4.745 10.852-12.067 10.852zm29.831-4.396l-.407-1.51h-10.17l-.677 3.433c-.271 1.237-1.085 2.336-2.305 2.336-1.356 0-2.305-1.1-2.305-2.336 0-.274.27-1.51.27-1.51l7.323-43.136c.407-2.335 2.576-4.121 5.288-4.121s4.746 1.786 5.288 4.121l7.594 41.075c0 .275.135 1.099.135 1.373 0 2.748-2.305 4.671-5.152 4.671-2.441-.137-4.068-1.786-4.882-4.396zm26.983.138c-.407 2.335-2.576 4.258-5.288 4.258-2.576 0-4.746-1.923-5.152-4.258L93.152 17.72c-.135-.274-.135-1.099-.135-1.373 0-2.885 2.305-4.671 5.017-4.671 2.576 0 4.203 1.648 5.017 4.258l5.559 31.459 5.695-33.382c.271-1.374 1.085-2.335 2.305-2.335 1.356 0 2.441 1.099 2.441 2.335-.136.275-.272 1.511-.272 1.511s-.135 1.237-7.593 43.136zm22.373 4.258c-7.322 0-12.068-3.434-12.068-11.127V22.94c0-7.83 4.61-11.127 11.933-11.127 7.322 0 12.203 3.434 12.203 11.127V51.79c0 7.693-4.746 11.127-12.068 11.127zm22.78-.137c-2.305 0-5.017-1.374-5.017-4.534 0 0-.136-2.06 0-42.173 0-2.473 2.169-4.396 4.881-4.396s5.017 1.923 5.017 4.396v42.036h4.61c1.221 0 2.305 1.1 2.305 2.335a2.3 2.3 0 01-2.305 2.336h-9.491zm18.44 0c-2.305 0-5.017-1.374-5.017-4.534V16.073c0-2.473 2.306-4.396 5.017-4.396 2.712 0 5.017 1.923 5.017 4.396.136 40.113 0 42.174 0 42.174 0 3.16-2.711 4.533-5.017 4.533zm32.543-.138c-2.305.962-5.017-.137-5.966-2.747l-12.068-31.321v32.145c0 1.237-.949 2.198-2.17 2.198-1.22 0-2.169-.961-2.169-2.198V16.347a4.893 4.893 0 012.983-4.533c2.305-.962 5.017.275 5.966 2.748l12.068 31.458V13.6c0-1.236.949-2.198 2.169-2.198 1.221 0 2.17 1.099 2.17 2.198v44.51a4.893 4.893 0 01-2.983 4.532zm13.017.138c-2.305 0-5.017-1.374-5.017-4.534 0 0-.136-2.06 0-42.173 0-2.473 2.305-4.396 5.017-4.396s5.017 1.923 5.017 4.396v42.174c0 3.16-2.577 4.533-5.017 4.533z" fill="#E30613"/></g><defs><clipPath id="clip0"><path fill="#fff" d="M0 0h240v75.556H0z"/></clipPath></defs></svg>