<svg width="114" height="109" fill="none" xmlns="http://www.w3.org/2000/svg"><g clip-path="url(#clip0)" fill="#E9952F"><path d="M55.575 104.013c-13.538 0-26.006-5.343-35.625-14.605C10.331 80.148 4.988 67.68 4.988 54.5S10.33 28.853 19.95 19.591c9.619-9.26 22.088-14.604 35.625-14.604 6.412 0 12.469 1.069 18.169 3.562l2.137-4.63C69.47 1.424 62.7 0 55.575 0 40.612 0 26.719 5.7 16.387 16.03 5.7 26.36 0 39.894 0 54.5s5.7 28.14 16.387 38.47C26.72 103.302 40.97 109 55.576 109c14.962 0 28.856-5.699 39.188-16.03 10.331-10.33 16.387-23.865 16.387-38.47v-2.493h-4.988V54.5c0 13.18-5.343 25.647-14.962 34.909-9.619 9.617-22.088 14.604-35.625 14.604z"/><path d="M55.931 67.68L114 11.042l-3.562-3.562-54.863 54.144-12.469-12.111-3.562 3.562L55.93 67.68z"/></g><defs><clipPath id="clip0"><path fill="#fff" d="M0 0h114v109H0z"/></clipPath></defs></svg>