<svg width="64" height="64" fill="none" xmlns="http://www.w3.org/2000/svg"><path d="M45.267 39.462L33 31.458V12a1 1 0 00-2 0v20.542l13.173 8.6a1.003 1.003 0 001.385-.291 1.002 1.002 0 00-.291-1.385v-.004z" fill="#E9952F"/><path d="M32 0a32 32 0 100 64 32 32 0 000-64zm21.893 52.479l-1.9-1.9A1 1 0 1050.583 52l1.9 1.9A29.881 29.881 0 0133 61.975V59a1 1 0 10-2 0v2.975a29.881 29.881 0 01-19.479-8.081l1.9-1.9A1.001 1.001 0 0012 50.583l-1.9 1.9A29.881 29.881 0 012.025 33H5a1 1 0 000-2H2.025a29.881 29.881 0 018.081-19.479l1.9 1.9a1.003 1.003 0 001.707-.714 1 1 0 00-.296-.707l-1.9-1.9A29.881 29.881 0 0131 2.025V5a1 1 0 002 0V2.025a29.88 29.88 0 0119.479 8.081l-1.9 1.9A1 1 0 1052 13.417l1.9-1.9A29.88 29.88 0 0161.975 31H59a1 1 0 000 2h2.975a29.88 29.88 0 01-8.082 19.479z" fill="#E9952F"/></svg>